<mxfile host="Electron" modified="2023-11-01T05:59:19.242Z" agent="Mozilla/5.0 (X11; Linux x86_64) AppleWebKit/537.36 (KHTML, like Gecko) draw.io/22.0.3 Chrome/114.0.5735.289 Electron/25.8.4 Safari/537.36" etag="VIp7bZ5jl2pFzndc80GV" version="22.0.3" type="device">
  <diagram name="第 1 页" id="c_1S3M-OjREDbeR5obq9">
    <mxGraphModel dx="1889" dy="1306" grid="0" gridSize="10" guides="1" tooltips="1" connect="1" arrows="1" fold="1" page="0" pageScale="1" pageWidth="827" pageHeight="1169" math="0" shadow="0">
      <root>
        <mxCell id="0" />
        <mxCell id="1" parent="0" />
        <mxCell id="nO7J6b2MA-JyO90qj8Ey-29" style="edgeStyle=orthogonalEdgeStyle;rounded=0;orthogonalLoop=1;jettySize=auto;html=1;exitX=1;exitY=0.5;exitDx=0;exitDy=0;dashed=1;" edge="1" parent="1" source="nO7J6b2MA-JyO90qj8Ey-1" target="nO7J6b2MA-JyO90qj8Ey-5">
          <mxGeometry relative="1" as="geometry" />
        </mxCell>
        <mxCell id="nO7J6b2MA-JyO90qj8Ey-31" style="edgeStyle=orthogonalEdgeStyle;rounded=0;orthogonalLoop=1;jettySize=auto;html=1;exitX=0.5;exitY=0;exitDx=0;exitDy=0;entryX=0.5;entryY=1;entryDx=0;entryDy=0;" edge="1" parent="1" source="nO7J6b2MA-JyO90qj8Ey-1" target="nO7J6b2MA-JyO90qj8Ey-30">
          <mxGeometry relative="1" as="geometry" />
        </mxCell>
        <mxCell id="nO7J6b2MA-JyO90qj8Ey-1" value="EventExecutor" style="ellipse;whiteSpace=wrap;html=1;fontSize=16;" vertex="1" parent="1">
          <mxGeometry x="31" y="88" width="142" height="71" as="geometry" />
        </mxCell>
        <mxCell id="nO7J6b2MA-JyO90qj8Ey-8" style="rounded=0;orthogonalLoop=1;jettySize=auto;html=1;exitX=0.5;exitY=0;exitDx=0;exitDy=0;entryX=0;entryY=0.5;entryDx=0;entryDy=0;" edge="1" parent="1" source="nO7J6b2MA-JyO90qj8Ey-4" target="nO7J6b2MA-JyO90qj8Ey-1">
          <mxGeometry relative="1" as="geometry" />
        </mxCell>
        <mxCell id="nO7J6b2MA-JyO90qj8Ey-13" style="edgeStyle=orthogonalEdgeStyle;rounded=0;orthogonalLoop=1;jettySize=auto;html=1;exitX=1;exitY=0.5;exitDx=0;exitDy=0;" edge="1" parent="1" source="nO7J6b2MA-JyO90qj8Ey-4" target="nO7J6b2MA-JyO90qj8Ey-10">
          <mxGeometry relative="1" as="geometry" />
        </mxCell>
        <mxCell id="nO7J6b2MA-JyO90qj8Ey-27" style="edgeStyle=orthogonalEdgeStyle;rounded=0;orthogonalLoop=1;jettySize=auto;html=1;exitX=0.5;exitY=1;exitDx=0;exitDy=0;entryX=0.5;entryY=1;entryDx=0;entryDy=0;dashed=1;" edge="1" parent="1" source="nO7J6b2MA-JyO90qj8Ey-4" target="nO7J6b2MA-JyO90qj8Ey-6">
          <mxGeometry relative="1" as="geometry">
            <Array as="points">
              <mxPoint x="-176" y="618" />
              <mxPoint x="777" y="618" />
            </Array>
          </mxGeometry>
        </mxCell>
        <mxCell id="nO7J6b2MA-JyO90qj8Ey-4" value="EventLoop" style="ellipse;whiteSpace=wrap;html=1;fontSize=16;" vertex="1" parent="1">
          <mxGeometry x="-247" y="354.5" width="142" height="71" as="geometry" />
        </mxCell>
        <mxCell id="nO7J6b2MA-JyO90qj8Ey-5" value="EventExecutorGroup" style="ellipse;whiteSpace=wrap;html=1;fontSize=16;" vertex="1" parent="1">
          <mxGeometry x="351" y="88" width="190" height="71" as="geometry" />
        </mxCell>
        <mxCell id="nO7J6b2MA-JyO90qj8Ey-20" style="edgeStyle=orthogonalEdgeStyle;rounded=0;orthogonalLoop=1;jettySize=auto;html=1;" edge="1" parent="1" source="nO7J6b2MA-JyO90qj8Ey-6" target="nO7J6b2MA-JyO90qj8Ey-17">
          <mxGeometry relative="1" as="geometry" />
        </mxCell>
        <mxCell id="nO7J6b2MA-JyO90qj8Ey-21" style="rounded=0;orthogonalLoop=1;jettySize=auto;html=1;exitX=0.5;exitY=0;exitDx=0;exitDy=0;entryX=1;entryY=0.5;entryDx=0;entryDy=0;" edge="1" parent="1" source="nO7J6b2MA-JyO90qj8Ey-6" target="nO7J6b2MA-JyO90qj8Ey-5">
          <mxGeometry relative="1" as="geometry" />
        </mxCell>
        <mxCell id="nO7J6b2MA-JyO90qj8Ey-6" value="EventLoopGroup" style="ellipse;whiteSpace=wrap;html=1;fontSize=16;" vertex="1" parent="1">
          <mxGeometry x="682" y="354.5" width="190" height="71" as="geometry" />
        </mxCell>
        <mxCell id="nO7J6b2MA-JyO90qj8Ey-11" style="edgeStyle=orthogonalEdgeStyle;rounded=0;orthogonalLoop=1;jettySize=auto;html=1;exitX=0.5;exitY=0;exitDx=0;exitDy=0;" edge="1" parent="1" source="nO7J6b2MA-JyO90qj8Ey-7" target="nO7J6b2MA-JyO90qj8Ey-1">
          <mxGeometry relative="1" as="geometry" />
        </mxCell>
        <mxCell id="nO7J6b2MA-JyO90qj8Ey-7" value="SingleThreadEventExecutor" style="rounded=1;whiteSpace=wrap;html=1;fontSize=16;" vertex="1" parent="1">
          <mxGeometry x="-12.5" y="224" width="229" height="60" as="geometry" />
        </mxCell>
        <mxCell id="nO7J6b2MA-JyO90qj8Ey-12" style="edgeStyle=orthogonalEdgeStyle;rounded=0;orthogonalLoop=1;jettySize=auto;html=1;exitX=0.5;exitY=0;exitDx=0;exitDy=0;" edge="1" parent="1" source="nO7J6b2MA-JyO90qj8Ey-10" target="nO7J6b2MA-JyO90qj8Ey-7">
          <mxGeometry relative="1" as="geometry" />
        </mxCell>
        <mxCell id="nO7J6b2MA-JyO90qj8Ey-10" value="SingleThreadEventLoop" style="rounded=1;whiteSpace=wrap;html=1;fontSize=16;" vertex="1" parent="1">
          <mxGeometry x="-12.5" y="360" width="229" height="60" as="geometry" />
        </mxCell>
        <mxCell id="nO7J6b2MA-JyO90qj8Ey-15" style="edgeStyle=orthogonalEdgeStyle;rounded=0;orthogonalLoop=1;jettySize=auto;html=1;exitX=0.5;exitY=0;exitDx=0;exitDy=0;" edge="1" parent="1" source="nO7J6b2MA-JyO90qj8Ey-14" target="nO7J6b2MA-JyO90qj8Ey-10">
          <mxGeometry relative="1" as="geometry" />
        </mxCell>
        <mxCell id="nO7J6b2MA-JyO90qj8Ey-14" value="NioEventLoop" style="rounded=1;whiteSpace=wrap;html=1;fontSize=16;" vertex="1" parent="1">
          <mxGeometry x="-12.5" y="493" width="229" height="60" as="geometry" />
        </mxCell>
        <mxCell id="nO7J6b2MA-JyO90qj8Ey-22" style="edgeStyle=orthogonalEdgeStyle;rounded=0;orthogonalLoop=1;jettySize=auto;html=1;exitX=0.5;exitY=0;exitDx=0;exitDy=0;" edge="1" parent="1" source="nO7J6b2MA-JyO90qj8Ey-16" target="nO7J6b2MA-JyO90qj8Ey-5">
          <mxGeometry relative="1" as="geometry" />
        </mxCell>
        <mxCell id="nO7J6b2MA-JyO90qj8Ey-16" value="MultiThreadEventExecutorGroup" style="rounded=1;whiteSpace=wrap;html=1;fontSize=16;" vertex="1" parent="1">
          <mxGeometry x="310" y="221" width="272" height="60" as="geometry" />
        </mxCell>
        <mxCell id="nO7J6b2MA-JyO90qj8Ey-23" style="edgeStyle=orthogonalEdgeStyle;rounded=0;orthogonalLoop=1;jettySize=auto;html=1;exitX=0.5;exitY=0;exitDx=0;exitDy=0;" edge="1" parent="1" source="nO7J6b2MA-JyO90qj8Ey-17" target="nO7J6b2MA-JyO90qj8Ey-16">
          <mxGeometry relative="1" as="geometry" />
        </mxCell>
        <mxCell id="nO7J6b2MA-JyO90qj8Ey-17" value="MultiThreadEventLoopGroup" style="rounded=1;whiteSpace=wrap;html=1;fontSize=16;" vertex="1" parent="1">
          <mxGeometry x="310" y="360" width="272" height="60" as="geometry" />
        </mxCell>
        <mxCell id="nO7J6b2MA-JyO90qj8Ey-24" style="edgeStyle=orthogonalEdgeStyle;rounded=0;orthogonalLoop=1;jettySize=auto;html=1;exitX=0.5;exitY=0;exitDx=0;exitDy=0;" edge="1" parent="1" source="nO7J6b2MA-JyO90qj8Ey-19" target="nO7J6b2MA-JyO90qj8Ey-17">
          <mxGeometry relative="1" as="geometry" />
        </mxCell>
        <mxCell id="nO7J6b2MA-JyO90qj8Ey-25" style="edgeStyle=orthogonalEdgeStyle;rounded=0;orthogonalLoop=1;jettySize=auto;html=1;exitX=0;exitY=0.5;exitDx=0;exitDy=0;dashed=1;" edge="1" parent="1" source="nO7J6b2MA-JyO90qj8Ey-19" target="nO7J6b2MA-JyO90qj8Ey-14">
          <mxGeometry relative="1" as="geometry" />
        </mxCell>
        <mxCell id="nO7J6b2MA-JyO90qj8Ey-26" value="管理" style="edgeLabel;html=1;align=center;verticalAlign=middle;resizable=0;points=[];fontSize=16;" vertex="1" connectable="0" parent="nO7J6b2MA-JyO90qj8Ey-25">
          <mxGeometry x="0.0466" relative="1" as="geometry">
            <mxPoint as="offset" />
          </mxGeometry>
        </mxCell>
        <mxCell id="nO7J6b2MA-JyO90qj8Ey-19" value="NioThreadEventLoopGroup" style="rounded=1;whiteSpace=wrap;html=1;fontSize=16;" vertex="1" parent="1">
          <mxGeometry x="310" y="493" width="272" height="60" as="geometry" />
        </mxCell>
        <mxCell id="nO7J6b2MA-JyO90qj8Ey-30" value="Executor" style="ellipse;whiteSpace=wrap;html=1;fontSize=16;" vertex="1" parent="1">
          <mxGeometry x="31" y="-22" width="142" height="71" as="geometry" />
        </mxCell>
      </root>
    </mxGraphModel>
  </diagram>
</mxfile>
